<svg width="86" height="32" viewBox="0 0 86 32" fill="none" xmlns="http://www.w3.org/2000/svg">
<rect width="86" height="32" rx="16" fill="black"/>
<path d="M22.1397 20.14C21.1131 20.14 20.2311 19.9347 19.4937 19.524C18.7657 19.104 18.2057 18.516 17.8137 17.76C17.4217 16.9947 17.2257 16.094 17.2257 15.058C17.2257 14.2833 17.3377 13.588 17.5617 12.972C17.7857 12.3467 18.1077 11.8147 18.5277 11.376C18.9477 10.928 19.4611 10.5873 20.0677 10.354C20.6837 10.1113 21.3744 9.99 22.1397 9.99C22.6531 9.99 23.1571 10.0553 23.6517 10.186C24.1464 10.3167 24.5804 10.5033 24.9537 10.746C25.1497 10.8673 25.2804 11.0167 25.3457 11.194C25.4111 11.362 25.4251 11.53 25.3877 11.698C25.3504 11.8567 25.2711 11.992 25.1497 12.104C25.0377 12.216 24.8931 12.2813 24.7157 12.3C24.5477 12.3093 24.3611 12.2487 24.1557 12.118C23.8664 11.9313 23.5537 11.796 23.2177 11.712C22.8817 11.628 22.5411 11.586 22.1957 11.586C21.5331 11.586 20.9731 11.7213 20.5157 11.992C20.0584 12.2627 19.7131 12.6547 19.4797 13.168C19.2464 13.6813 19.1297 14.3113 19.1297 15.058C19.1297 15.7953 19.2464 16.4253 19.4797 16.948C19.7131 17.4707 20.0584 17.8673 20.5157 18.138C20.9731 18.4087 21.5331 18.544 22.1957 18.544C22.5504 18.544 22.9004 18.502 23.2457 18.418C23.5911 18.3247 23.9177 18.1847 24.2257 17.998C24.4311 17.8767 24.6131 17.8253 24.7717 17.844C24.9397 17.8533 25.0797 17.9093 25.1917 18.012C25.3037 18.1147 25.3784 18.2453 25.4157 18.404C25.4531 18.5533 25.4437 18.712 25.3877 18.88C25.3317 19.0387 25.2197 19.1787 25.0517 19.3C24.6784 19.5707 24.2304 19.7807 23.7077 19.93C23.1944 20.07 22.6717 20.14 22.1397 20.14ZM29.5252 20.14C28.8158 20.14 28.1998 19.9953 27.6772 19.706C27.1545 19.4167 26.7485 19.006 26.4592 18.474C26.1698 17.9327 26.0252 17.298 26.0252 16.57C26.0252 16.0193 26.1045 15.5293 26.2632 15.1C26.4312 14.6613 26.6692 14.288 26.9772 13.98C27.2852 13.6627 27.6538 13.4247 28.0832 13.266C28.5125 13.098 28.9932 13.014 29.5252 13.014C30.2345 13.014 30.8505 13.1587 31.3732 13.448C31.8958 13.7373 32.3018 14.148 32.5912 14.68C32.8805 15.212 33.0252 15.842 33.0252 16.57C33.0252 17.1207 32.9412 17.6153 32.7732 18.054C32.6145 18.4927 32.3812 18.8707 32.0732 19.188C31.7652 19.496 31.3965 19.734 30.9672 19.902C30.5378 20.0607 30.0572 20.14 29.5252 20.14ZM29.5252 18.81C29.8705 18.81 30.1738 18.726 30.4352 18.558C30.6965 18.39 30.8972 18.1427 31.0372 17.816C31.1865 17.48 31.2612 17.0647 31.2612 16.57C31.2612 15.8233 31.1025 15.268 30.7852 14.904C30.4678 14.5307 30.0478 14.344 29.5252 14.344C29.1798 14.344 28.8765 14.428 28.6152 14.596C28.3538 14.7547 28.1485 15.002 27.9992 15.338C27.8592 15.6647 27.7892 16.0753 27.7892 16.57C27.7892 17.3073 27.9478 17.8673 28.2652 18.25C28.5825 18.6233 29.0025 18.81 29.5252 18.81ZM35.3376 20.112C35.0576 20.112 34.8429 20.0373 34.6936 19.888C34.5442 19.7293 34.4696 19.5053 34.4696 19.216V13.924C34.4696 13.6347 34.5442 13.4153 34.6936 13.266C34.8429 13.1167 35.0529 13.042 35.3236 13.042C35.5942 13.042 35.8042 13.1167 35.9536 13.266C36.1029 13.4153 36.1776 13.6347 36.1776 13.924V14.876L36.0236 14.526C36.2289 14.0313 36.5462 13.658 36.9756 13.406C37.4142 13.1447 37.9089 13.014 38.4596 13.014C39.0102 13.014 39.4629 13.1167 39.8176 13.322C40.1722 13.5273 40.4382 13.84 40.6156 14.26C40.7929 14.6707 40.8816 15.1933 40.8816 15.828V19.216C40.8816 19.5053 40.8069 19.7293 40.6576 19.888C40.5082 20.0373 40.2936 20.112 40.0136 20.112C39.7336 20.112 39.5142 20.0373 39.3556 19.888C39.2062 19.7293 39.1316 19.5053 39.1316 19.216V15.912C39.1316 15.38 39.0289 14.9927 38.8236 14.75C38.6276 14.5073 38.3196 14.386 37.8996 14.386C37.3862 14.386 36.9756 14.5493 36.6676 14.876C36.3689 15.1933 36.2196 15.618 36.2196 16.15V19.216C36.2196 19.8133 35.9256 20.112 35.3376 20.112ZM43.527 20.112C43.247 20.112 43.0324 20.0373 42.883 19.888C42.7337 19.7293 42.659 19.5053 42.659 19.216V13.924C42.659 13.6347 42.7337 13.4153 42.883 13.266C43.0324 13.1167 43.2424 13.042 43.513 13.042C43.7837 13.042 43.9937 13.1167 44.143 13.266C44.2924 13.4153 44.367 13.6347 44.367 13.924V14.876L44.213 14.526C44.4184 14.0313 44.7357 13.658 45.165 13.406C45.6037 13.1447 46.0984 13.014 46.649 13.014C47.1997 13.014 47.6524 13.1167 48.007 13.322C48.3617 13.5273 48.6277 13.84 48.805 14.26C48.9824 14.6707 49.071 15.1933 49.071 15.828V19.216C49.071 19.5053 48.9964 19.7293 48.847 19.888C48.6977 20.0373 48.483 20.112 48.203 20.112C47.923 20.112 47.7037 20.0373 47.545 19.888C47.3957 19.7293 47.321 19.5053 47.321 19.216V15.912C47.321 15.38 47.2184 14.9927 47.013 14.75C46.817 14.5073 46.509 14.386 46.089 14.386C45.5757 14.386 45.165 14.5493 44.857 14.876C44.5584 15.1933 44.409 15.618 44.409 16.15V19.216C44.409 19.8133 44.115 20.112 43.527 20.112ZM54.2225 20.14C53.4478 20.14 52.7805 19.9953 52.2205 19.706C51.6605 19.4167 51.2265 19.006 50.9185 18.474C50.6198 17.942 50.4705 17.312 50.4705 16.584C50.4705 15.8747 50.6151 15.254 50.9045 14.722C51.2031 14.19 51.6091 13.7747 52.1225 13.476C52.6451 13.168 53.2378 13.014 53.9005 13.014C54.3858 13.014 54.8198 13.0933 55.2025 13.252C55.5945 13.4107 55.9258 13.6393 56.1965 13.938C56.4765 14.2367 56.6865 14.6007 56.8265 15.03C56.9758 15.45 57.0505 15.926 57.0505 16.458C57.0505 16.626 56.9898 16.7567 56.8685 16.85C56.7565 16.934 56.5931 16.976 56.3785 16.976H51.8845V15.968H55.8185L55.5945 16.178C55.5945 15.7487 55.5291 15.3893 55.3985 15.1C55.2771 14.8107 55.0951 14.5913 54.8525 14.442C54.6191 14.2833 54.3251 14.204 53.9705 14.204C53.5785 14.204 53.2425 14.2973 52.9625 14.484C52.6918 14.6613 52.4818 14.918 52.3325 15.254C52.1925 15.5807 52.1225 15.9727 52.1225 16.43V16.528C52.1225 17.2933 52.2998 17.8673 52.6545 18.25C53.0185 18.6233 53.5505 18.81 54.2505 18.81C54.4931 18.81 54.7638 18.782 55.0625 18.726C55.3705 18.6607 55.6598 18.5533 55.9305 18.404C56.1265 18.292 56.2991 18.2453 56.4485 18.264C56.5978 18.2733 56.7145 18.3247 56.7985 18.418C56.8918 18.5113 56.9478 18.628 56.9665 18.768C56.9851 18.8987 56.9571 19.034 56.8825 19.174C56.8171 19.314 56.7005 19.4353 56.5325 19.538C56.2058 19.7433 55.8278 19.8973 55.3985 20C54.9785 20.0933 54.5865 20.14 54.2225 20.14ZM61.6004 20.14C60.8817 20.14 60.2564 19.9953 59.7244 19.706C59.1924 19.4073 58.7817 18.9873 58.4924 18.446C58.203 17.9047 58.0584 17.27 58.0584 16.542C58.0584 15.9913 58.1377 15.5013 58.2964 15.072C58.4644 14.6333 58.7024 14.2647 59.0104 13.966C59.3184 13.658 59.6917 13.4247 60.1304 13.266C60.569 13.098 61.059 13.014 61.6004 13.014C61.9084 13.014 62.2397 13.056 62.5944 13.14C62.9584 13.224 63.299 13.364 63.6164 13.56C63.7657 13.6533 63.8637 13.7653 63.9104 13.896C63.957 14.0267 63.9664 14.162 63.9384 14.302C63.9104 14.4327 63.8497 14.5493 63.7564 14.652C63.6724 14.7453 63.565 14.806 63.4344 14.834C63.3037 14.8527 63.159 14.82 63.0004 14.736C62.795 14.6147 62.585 14.526 62.3704 14.47C62.1557 14.4047 61.9504 14.372 61.7544 14.372C61.4464 14.372 61.1757 14.4233 60.9424 14.526C60.709 14.6193 60.5084 14.7593 60.3404 14.946C60.1817 15.1233 60.0604 15.3473 59.9764 15.618C59.8924 15.8887 59.8504 16.2013 59.8504 16.556C59.8504 17.2467 60.0137 17.7927 60.3404 18.194C60.6764 18.586 61.1477 18.782 61.7544 18.782C61.9504 18.782 62.151 18.754 62.3564 18.698C62.571 18.642 62.7857 18.5533 63.0004 18.432C63.159 18.348 63.299 18.32 63.4204 18.348C63.551 18.376 63.6584 18.4413 63.7424 18.544C63.8264 18.6373 63.8777 18.754 63.8964 18.894C63.915 19.0247 63.8964 19.1553 63.8404 19.286C63.7937 19.4167 63.7004 19.524 63.5604 19.608C63.2524 19.7947 62.9257 19.93 62.5804 20.014C62.235 20.098 61.9084 20.14 61.6004 20.14ZM68.2032 20.14C67.5966 20.14 67.0879 20.0373 66.6772 19.832C66.2759 19.6267 65.9772 19.328 65.7812 18.936C65.5852 18.5347 65.4872 18.04 65.4872 17.452V14.47H64.7592C64.5352 14.47 64.3626 14.414 64.2412 14.302C64.1199 14.1807 64.0592 14.0173 64.0592 13.812C64.0592 13.5973 64.1199 13.434 64.2412 13.322C64.3626 13.21 64.5352 13.154 64.7592 13.154H65.4872V11.88C65.4872 11.5907 65.5619 11.3713 65.7112 11.222C65.8699 11.0727 66.0892 10.998 66.3692 10.998C66.6492 10.998 66.8639 11.0727 67.0132 11.222C67.1626 11.3713 67.2372 11.5907 67.2372 11.88V13.154H68.7212C68.9452 13.154 69.1179 13.21 69.2392 13.322C69.3606 13.434 69.4212 13.5973 69.4212 13.812C69.4212 14.0173 69.3606 14.1807 69.2392 14.302C69.1179 14.414 68.9452 14.47 68.7212 14.47H67.2372V17.354C67.2372 17.802 67.3352 18.138 67.5312 18.362C67.7272 18.586 68.0446 18.698 68.4832 18.698C68.6419 18.698 68.7819 18.684 68.9032 18.656C69.0246 18.628 69.1319 18.6093 69.2252 18.6C69.3372 18.5907 69.4306 18.628 69.5052 18.712C69.5799 18.7867 69.6172 18.9453 69.6172 19.188C69.6172 19.3747 69.5846 19.5427 69.5192 19.692C69.4632 19.832 69.3559 19.93 69.1972 19.986C69.0759 20.0233 68.9172 20.056 68.7212 20.084C68.5252 20.1213 68.3526 20.14 68.2032 20.14Z" fill="white"/>
</svg>
