<svg width="653" height="32" viewBox="0 0 653 32" fill="none" xmlns="http://www.w3.org/2000/svg">
<path d="M136.662 18.18C136.049 18.18 135.449 18.1333 134.862 18.04C134.276 17.9467 133.722 17.8067 133.202 17.62C132.682 17.42 132.216 17.18 131.802 16.9C131.602 16.7533 131.462 16.5867 131.382 16.4C131.316 16.2133 131.296 16.0333 131.322 15.86C131.362 15.6733 131.442 15.5133 131.562 15.38C131.682 15.2467 131.829 15.1667 132.002 15.14C132.176 15.1 132.369 15.1533 132.582 15.3C133.182 15.6867 133.816 15.9733 134.482 16.16C135.149 16.3333 135.876 16.42 136.662 16.42C137.796 16.42 138.629 16.22 139.162 15.82C139.709 15.4067 139.982 14.8733 139.982 14.22C139.982 13.6867 139.789 13.2667 139.402 12.96C139.016 12.64 138.369 12.3867 137.462 12.2L135.322 11.76C134.056 11.4933 133.109 11.0533 132.482 10.44C131.869 9.82667 131.562 9 131.562 7.96C131.562 7.33333 131.689 6.76 131.942 6.24C132.209 5.72 132.576 5.27333 133.042 4.9C133.509 4.51333 134.069 4.22 134.722 4.02C135.376 3.82 136.089 3.72 136.862 3.72C137.689 3.72 138.462 3.82667 139.182 4.04C139.916 4.25333 140.569 4.58 141.142 5.02C141.316 5.14 141.429 5.29333 141.482 5.48C141.549 5.65333 141.562 5.82667 141.522 6C141.496 6.17333 141.422 6.32 141.302 6.44C141.182 6.56 141.029 6.63333 140.842 6.66C140.656 6.67333 140.449 6.60667 140.222 6.46C139.702 6.11333 139.169 5.86667 138.622 5.72C138.089 5.56 137.496 5.48 136.842 5.48C136.189 5.48 135.616 5.58 135.122 5.78C134.642 5.98 134.269 6.26 134.002 6.62C133.749 6.98 133.622 7.40667 133.622 7.9C133.622 8.46 133.802 8.90667 134.162 9.24C134.522 9.57333 135.122 9.82667 135.962 10L138.082 10.44C139.416 10.72 140.409 11.1533 141.062 11.74C141.716 12.3267 142.042 13.1067 142.042 14.08C142.042 14.7067 141.916 15.2733 141.662 15.78C141.409 16.2733 141.049 16.7 140.582 17.06C140.116 17.42 139.549 17.7 138.882 17.9C138.229 18.0867 137.489 18.18 136.662 18.18ZM148.285 18.18C147.485 18.18 146.812 18.04 146.265 17.76C145.718 17.48 145.312 17.0667 145.045 16.52C144.778 15.9733 144.645 15.3067 144.645 14.52V9.8H143.445C143.178 9.8 142.972 9.73333 142.825 9.6C142.678 9.45333 142.605 9.26 142.605 9.02C142.605 8.76667 142.678 8.57333 142.825 8.44C142.972 8.30667 143.178 8.24 143.445 8.24H144.645V6.18C144.645 5.84667 144.732 5.59333 144.905 5.42C145.092 5.24667 145.345 5.16 145.665 5.16C145.985 5.16 146.232 5.24667 146.405 5.42C146.578 5.59333 146.665 5.84667 146.665 6.18V8.24H149.005C149.272 8.24 149.478 8.30667 149.625 8.44C149.772 8.57333 149.845 8.76667 149.845 9.02C149.845 9.26 149.772 9.45333 149.625 9.6C149.478 9.73333 149.272 9.8 149.005 9.8H146.665V14.36C146.665 15.0667 146.812 15.6 147.105 15.96C147.412 16.32 147.905 16.5 148.585 16.5C148.825 16.5 149.032 16.48 149.205 16.44C149.392 16.3867 149.545 16.3533 149.665 16.34C149.812 16.34 149.932 16.3933 150.025 16.5C150.118 16.5933 150.165 16.78 150.165 17.06C150.165 17.26 150.125 17.4467 150.045 17.62C149.978 17.7933 149.852 17.9067 149.665 17.96C149.505 18.0133 149.285 18.06 149.005 18.1C148.738 18.1533 148.498 18.18 148.285 18.18ZM155.572 18.18C154.585 18.18 153.732 17.9733 153.012 17.56C152.305 17.1467 151.752 16.56 151.352 15.8C150.952 15.04 150.752 14.1467 150.752 13.12C150.752 12.3333 150.865 11.6333 151.092 11.02C151.319 10.4067 151.639 9.88 152.052 9.44C152.479 8.98667 152.985 8.64667 153.572 8.42C154.172 8.18 154.839 8.06 155.572 8.06C156.545 8.06 157.385 8.26667 158.092 8.68C158.812 9.09333 159.372 9.68 159.772 10.44C160.172 11.1867 160.372 12.08 160.372 13.12C160.372 13.8933 160.259 14.5933 160.032 15.22C159.805 15.8467 159.479 16.38 159.052 16.82C158.639 17.26 158.132 17.6 157.532 17.84C156.945 18.0667 156.292 18.18 155.572 18.18ZM155.572 16.62C156.119 16.62 156.599 16.4867 157.012 16.22C157.425 15.9533 157.745 15.56 157.972 15.04C158.212 14.52 158.332 13.88 158.332 13.12C158.332 11.9733 158.079 11.1067 157.572 10.52C157.065 9.93333 156.399 9.64 155.572 9.64C155.012 9.64 154.525 9.77333 154.112 10.04C153.699 10.2933 153.372 10.68 153.132 11.2C152.905 11.72 152.792 12.36 152.792 13.12C152.792 14.2533 153.045 15.12 153.552 15.72C154.059 16.32 154.732 16.62 155.572 16.62ZM163.661 18.14C163.327 18.14 163.074 18.0533 162.901 17.88C162.727 17.6933 162.641 17.44 162.641 17.12V9.12C162.641 8.78667 162.727 8.53333 162.901 8.36C163.074 8.18667 163.314 8.1 163.621 8.1C163.941 8.1 164.181 8.18667 164.341 8.36C164.514 8.53333 164.601 8.78667 164.601 9.12V10.58H164.401C164.614 9.78 165.007 9.17333 165.581 8.76C166.154 8.34667 166.887 8.10667 167.781 8.04C168.021 8.02667 168.207 8.08667 168.341 8.22C168.487 8.35333 168.567 8.56 168.581 8.84C168.607 9.12 168.547 9.34667 168.401 9.52C168.254 9.68 168.027 9.77333 167.721 9.8L167.341 9.84C166.474 9.92 165.814 10.1933 165.361 10.66C164.907 11.1267 164.681 11.7667 164.681 12.58V17.12C164.681 17.44 164.594 17.6933 164.421 17.88C164.261 18.0533 164.007 18.14 163.661 18.14ZM173.007 21.74C172.767 21.74 172.567 21.6733 172.407 21.54C172.26 21.42 172.174 21.2533 172.147 21.04C172.134 20.84 172.174 20.62 172.267 20.38L173.627 17.32V18.18L169.887 9.48C169.794 9.24 169.76 9.01333 169.787 8.8C169.814 8.58667 169.914 8.42 170.087 8.3C170.26 8.16667 170.494 8.1 170.787 8.1C171.04 8.1 171.24 8.16 171.387 8.28C171.534 8.4 171.667 8.60667 171.787 8.9L174.807 16.36H174.247L177.307 8.9C177.427 8.59333 177.567 8.38667 177.727 8.28C177.887 8.16 178.107 8.1 178.387 8.1C178.627 8.1 178.814 8.16667 178.947 8.3C179.094 8.42 179.18 8.58667 179.207 8.8C179.247 9 179.214 9.22 179.107 9.46L174.107 20.96C173.974 21.2667 173.82 21.4733 173.647 21.58C173.487 21.6867 173.274 21.74 173.007 21.74Z" fill="#949494"/>
<path d="M8.85188 18.16C8.53188 18.16 8.27188 18.0867 8.07188 17.94C7.88521 17.7933 7.77188 17.6 7.73188 17.36C7.69188 17.1067 7.73854 16.8267 7.87188 16.52L13.1519 4.82C13.3252 4.43333 13.5319 4.16 13.7719 4C14.0252 3.82667 14.3119 3.74 14.6319 3.74C14.9385 3.74 15.2119 3.82667 15.4519 4C15.7052 4.16 15.9185 4.43333 16.0919 4.82L21.3919 16.52C21.5385 16.8267 21.5919 17.1067 21.5519 17.36C21.5119 17.6133 21.3985 17.8133 21.2119 17.96C21.0252 18.0933 20.7785 18.16 20.4719 18.16C20.0985 18.16 19.8052 18.0733 19.5919 17.9C19.3919 17.7133 19.2119 17.4333 19.0519 17.06L17.7519 14.04L18.8319 14.74H10.3919L11.4719 14.04L10.1919 17.06C10.0185 17.4467 9.83854 17.7267 9.65188 17.9C9.46521 18.0733 9.19854 18.16 8.85188 18.16ZM14.5919 6.68L11.7919 13.34L11.2719 12.7H17.9519L17.4519 13.34L14.6319 6.68H14.5919ZM28.9947 18.2C28.168 18.2 27.4414 17.9933 26.8147 17.58C26.2014 17.1667 25.7947 16.6133 25.5947 15.92L25.8147 15.42V16.88C25.8147 17.2933 25.708 17.6133 25.4947 17.84C25.2814 18.0533 24.9814 18.16 24.5947 18.16C24.1947 18.16 23.888 18.0533 23.6747 17.84C23.4614 17.6133 23.3547 17.2933 23.3547 16.88V5C23.3547 4.58667 23.4614 4.27333 23.6747 4.06C23.888 3.84667 24.1947 3.74 24.5947 3.74C24.9947 3.74 25.3014 3.84667 25.5147 4.06C25.7414 4.27333 25.8547 4.58667 25.8547 5V10.2H25.6147C25.828 9.54667 26.2414 9.02 26.8547 8.62C27.468 8.22 28.1814 8.02 28.9947 8.02C29.8614 8.02 30.6147 8.22667 31.2547 8.64C31.8947 9.05333 32.3947 9.64 32.7547 10.4C33.1147 11.1467 33.2947 12.0467 33.2947 13.1C33.2947 14.14 33.1147 15.0467 32.7547 15.82C32.3947 16.58 31.888 17.1667 31.2347 17.58C30.5947 17.9933 29.848 18.2 28.9947 18.2ZM28.2947 16.3C28.788 16.3 29.2214 16.18 29.5947 15.94C29.968 15.7 30.2547 15.3467 30.4547 14.88C30.668 14.4 30.7747 13.8067 30.7747 13.1C30.7747 12.0333 30.548 11.24 30.0947 10.72C29.6414 10.1867 29.0414 9.92 28.2947 9.92C27.8014 9.92 27.368 10.04 26.9947 10.28C26.6214 10.5067 26.328 10.86 26.1147 11.34C25.9147 11.8067 25.8147 12.3933 25.8147 13.1C25.8147 14.1533 26.0414 14.9533 26.4947 15.5C26.948 16.0333 27.548 16.3 28.2947 16.3ZM39.8069 18.2C38.7935 18.2 37.9135 17.9933 37.1669 17.58C36.4202 17.1667 35.8402 16.58 35.4269 15.82C35.0135 15.0467 34.8069 14.14 34.8069 13.1C34.8069 12.3133 34.9202 11.6133 35.1469 11C35.3869 10.3733 35.7269 9.84 36.1669 9.4C36.6069 8.94667 37.1335 8.60667 37.7469 8.38C38.3602 8.14 39.0469 8.02 39.8069 8.02C40.8202 8.02 41.7002 8.22667 42.4469 8.64C43.1935 9.05333 43.7735 9.64 44.1869 10.4C44.6002 11.16 44.8069 12.06 44.8069 13.1C44.8069 13.8867 44.6869 14.5933 44.4469 15.22C44.2202 15.8467 43.8869 16.3867 43.4469 16.84C43.0069 17.28 42.4802 17.62 41.8669 17.86C41.2535 18.0867 40.5669 18.2 39.8069 18.2ZM39.8069 16.3C40.3002 16.3 40.7335 16.18 41.1069 15.94C41.4802 15.7 41.7669 15.3467 41.9669 14.88C42.1802 14.4 42.2869 13.8067 42.2869 13.1C42.2869 12.0333 42.0602 11.24 41.6069 10.72C41.1535 10.1867 40.5535 9.92 39.8069 9.92C39.3135 9.92 38.8802 10.04 38.5069 10.28C38.1335 10.5067 37.8402 10.86 37.6269 11.34C37.4269 11.8067 37.3269 12.3933 37.3269 13.1C37.3269 14.1533 37.5535 14.9533 38.0069 15.5C38.4602 16.0333 39.0602 16.3 39.8069 16.3ZM50.4103 18.2C49.597 18.2 48.9236 18.0533 48.3903 17.76C47.857 17.4533 47.457 17 47.1903 16.4C46.937 15.8 46.8103 15.0533 46.8103 14.16V9.32C46.8103 8.89333 46.917 8.58 47.1303 8.38C47.3436 8.16667 47.6503 8.06 48.0503 8.06C48.4503 8.06 48.757 8.16667 48.9703 8.38C49.197 8.58 49.3103 8.89333 49.3103 9.32V14.2C49.3103 14.8933 49.4503 15.4067 49.7303 15.74C50.0103 16.0733 50.457 16.24 51.0703 16.24C51.737 16.24 52.2836 16.0133 52.7103 15.56C53.137 15.0933 53.3503 14.48 53.3503 13.72V9.32C53.3503 8.89333 53.457 8.58 53.6703 8.38C53.8836 8.16667 54.1903 8.06 54.5903 8.06C54.9903 8.06 55.297 8.16667 55.5103 8.38C55.737 8.58 55.8503 8.89333 55.8503 9.32V16.88C55.8503 17.7333 55.4436 18.16 54.6303 18.16C54.2436 18.16 53.9436 18.0533 53.7303 17.84C53.517 17.6133 53.4103 17.2933 53.4103 16.88V15.36L53.6903 15.96C53.4103 16.68 52.9836 17.2333 52.4103 17.62C51.8503 18.0067 51.1836 18.2 50.4103 18.2ZM62.9323 18.2C62.0657 18.2 61.339 18.0533 60.7523 17.76C60.179 17.4667 59.7523 17.04 59.4723 16.48C59.1923 15.9067 59.0523 15.2 59.0523 14.36V10.1H58.0123C57.6923 10.1 57.4457 10.02 57.2723 9.86C57.099 9.68667 57.0123 9.45333 57.0123 9.16C57.0123 8.85333 57.099 8.62 57.2723 8.46C57.4457 8.3 57.6923 8.22 58.0123 8.22H59.0523V6.4C59.0523 5.98667 59.159 5.67333 59.3723 5.46C59.599 5.24667 59.9123 5.14 60.3123 5.14C60.7123 5.14 61.019 5.24667 61.2323 5.46C61.4457 5.67333 61.5523 5.98667 61.5523 6.4V8.22H63.6723C63.9923 8.22 64.239 8.3 64.4123 8.46C64.5857 8.62 64.6723 8.85333 64.6723 9.16C64.6723 9.45333 64.5857 9.68667 64.4123 9.86C64.239 10.02 63.9923 10.1 63.6723 10.1H61.5523V14.22C61.5523 14.86 61.6923 15.34 61.9723 15.66C62.2523 15.98 62.7057 16.14 63.3323 16.14C63.559 16.14 63.759 16.12 63.9323 16.08C64.1057 16.04 64.259 16.0133 64.3923 16C64.5523 15.9867 64.6857 16.04 64.7923 16.16C64.899 16.2667 64.9523 16.4933 64.9523 16.84C64.9523 17.1067 64.9057 17.3467 64.8123 17.56C64.7323 17.76 64.579 17.9 64.3523 17.98C64.179 18.0333 63.9523 18.08 63.6723 18.12C63.3923 18.1733 63.1457 18.2 62.9323 18.2Z" fill="#E84F92"/>
<path d="M247.021 18.14C246.727 18.14 246.487 18.0667 246.301 17.92C246.127 17.7733 245.981 17.5467 245.861 17.24L241.561 4.98C241.441 4.63333 241.461 4.34667 241.621 4.12C241.794 3.88 242.074 3.76 242.461 3.76C242.754 3.76 242.981 3.82667 243.141 3.96C243.314 4.09333 243.447 4.30667 243.541 4.6L247.441 16.08H246.701L250.701 4.64C250.821 4.34667 250.961 4.12667 251.121 3.98C251.281 3.83333 251.494 3.76 251.761 3.76C252.027 3.76 252.234 3.83333 252.381 3.98C252.541 4.12667 252.681 4.35333 252.801 4.66L256.721 16.08H256.061L260.001 4.6C260.094 4.32 260.221 4.11333 260.381 3.98C260.554 3.83333 260.781 3.76 261.061 3.76C261.407 3.76 261.661 3.88 261.821 4.12C261.994 4.34667 262.014 4.63333 261.881 4.98L257.561 17.26C257.441 17.5533 257.294 17.7733 257.121 17.92C256.947 18.0667 256.714 18.14 256.421 18.14C256.114 18.14 255.874 18.0667 255.701 17.92C255.527 17.7733 255.387 17.5467 255.281 17.24L251.501 6.42H251.941L248.121 17.26C248.014 17.5533 247.874 17.7733 247.701 17.92C247.541 18.0667 247.314 18.14 247.021 18.14ZM265.912 18.14C265.592 18.14 265.346 18.0533 265.172 17.88C264.999 17.6933 264.912 17.44 264.912 17.12V4.78C264.912 4.44667 264.999 4.19333 265.172 4.02C265.346 3.84667 265.592 3.76 265.912 3.76C266.232 3.76 266.479 3.84667 266.652 4.02C266.839 4.19333 266.932 4.44667 266.932 4.78V10.32H266.652C266.946 9.57333 267.406 9.01333 268.032 8.64C268.659 8.25333 269.379 8.06 270.192 8.06C270.966 8.06 271.606 8.20667 272.112 8.5C272.632 8.78 273.019 9.21333 273.272 9.8C273.526 10.3733 273.652 11.1 273.652 11.98V17.12C273.652 17.44 273.566 17.6933 273.392 17.88C273.219 18.0533 272.972 18.14 272.652 18.14C272.319 18.14 272.066 18.0533 271.892 17.88C271.719 17.6933 271.632 17.44 271.632 17.12V12.1C271.632 11.26 271.466 10.6467 271.132 10.26C270.812 9.87333 270.306 9.68 269.612 9.68C268.799 9.68 268.146 9.93333 267.652 10.44C267.172 10.9467 266.932 11.6267 266.932 12.48V17.12C266.932 17.8 266.592 18.14 265.912 18.14ZM278.638 21.74C278.398 21.74 278.198 21.6733 278.038 21.54C277.891 21.42 277.805 21.2533 277.778 21.04C277.765 20.84 277.805 20.62 277.898 20.38L279.258 17.32V18.18L275.518 9.48C275.425 9.24 275.391 9.01333 275.418 8.8C275.445 8.58667 275.545 8.42 275.718 8.3C275.891 8.16667 276.125 8.1 276.418 8.1C276.671 8.1 276.871 8.16 277.018 8.28C277.165 8.4 277.298 8.60667 277.418 8.9L280.438 16.36H279.878L282.938 8.9C283.058 8.59333 283.198 8.38667 283.358 8.28C283.518 8.16 283.738 8.1 284.018 8.1C284.258 8.1 284.445 8.16667 284.578 8.3C284.725 8.42 284.811 8.58667 284.838 8.8C284.878 9 284.845 9.22 284.738 9.46L279.738 20.96C279.605 21.2667 279.451 21.4733 279.278 21.58C279.118 21.6867 278.905 21.74 278.638 21.74ZM292.142 18.14C291.875 18.14 291.662 18.08 291.502 17.96C291.342 17.84 291.249 17.68 291.222 17.48C291.195 17.28 291.235 17.0533 291.342 16.8L296.762 4.64C296.895 4.32 297.062 4.09333 297.262 3.96C297.475 3.82667 297.709 3.76 297.962 3.76C298.202 3.76 298.422 3.82667 298.622 3.96C298.835 4.09333 299.009 4.32 299.142 4.64L304.562 16.8C304.682 17.0533 304.729 17.2867 304.702 17.5C304.675 17.7 304.589 17.86 304.442 17.98C304.295 18.0867 304.089 18.14 303.822 18.14C303.529 18.14 303.295 18.0667 303.122 17.92C302.949 17.7733 302.795 17.5467 302.662 17.24L301.262 14L302.202 14.56H293.682L294.602 14L293.222 17.24C293.089 17.56 292.942 17.7933 292.782 17.94C292.622 18.0733 292.409 18.14 292.142 18.14ZM297.922 6.2L294.902 13.36L294.402 12.88H301.462L301.002 13.36L297.962 6.2H297.922ZM310.351 18.18C309.498 18.18 308.744 17.98 308.091 17.58C307.451 17.1667 306.951 16.58 306.591 15.82C306.231 15.0467 306.051 14.1467 306.051 13.12C306.051 12.0667 306.231 11.1667 306.591 10.42C306.951 9.67333 307.451 9.09333 308.091 8.68C308.744 8.26667 309.498 8.06 310.351 8.06C311.204 8.06 311.938 8.27333 312.551 8.7C313.178 9.11333 313.598 9.67333 313.811 10.38H313.591V4.78C313.591 4.44667 313.678 4.19333 313.851 4.02C314.024 3.84667 314.271 3.76 314.591 3.76C314.911 3.76 315.158 3.84667 315.331 4.02C315.518 4.19333 315.611 4.44667 315.611 4.78V17.12C315.611 17.44 315.524 17.6933 315.351 17.88C315.178 18.0533 314.931 18.14 314.611 18.14C314.291 18.14 314.044 18.0533 313.871 17.88C313.698 17.6933 313.611 17.44 313.611 17.12V15.36L313.831 15.8C313.618 16.52 313.198 17.1 312.571 17.54C311.958 17.9667 311.218 18.18 310.351 18.18ZM310.871 16.62C311.418 16.62 311.898 16.4867 312.311 16.22C312.724 15.9533 313.044 15.56 313.271 15.04C313.511 14.52 313.631 13.88 313.631 13.12C313.631 11.9733 313.378 11.1067 312.871 10.52C312.364 9.93333 311.698 9.64 310.871 9.64C310.311 9.64 309.824 9.77333 309.411 10.04C308.998 10.2933 308.671 10.68 308.431 11.2C308.204 11.72 308.091 12.36 308.091 13.12C308.091 14.2533 308.344 15.12 308.851 15.72C309.358 16.32 310.031 16.62 310.871 16.62ZM322.687 18.18C321.701 18.18 320.847 17.9733 320.127 17.56C319.421 17.1467 318.867 16.56 318.467 15.8C318.067 15.04 317.867 14.1467 317.867 13.12C317.867 12.3333 317.981 11.6333 318.207 11.02C318.434 10.4067 318.754 9.88 319.167 9.44C319.594 8.98667 320.101 8.64667 320.687 8.42C321.287 8.18 321.954 8.06 322.687 8.06C323.661 8.06 324.501 8.26667 325.207 8.68C325.927 9.09333 326.487 9.68 326.887 10.44C327.287 11.1867 327.487 12.08 327.487 13.12C327.487 13.8933 327.374 14.5933 327.147 15.22C326.921 15.8467 326.594 16.38 326.167 16.82C325.754 17.26 325.247 17.6 324.647 17.84C324.061 18.0667 323.407 18.18 322.687 18.18ZM322.687 16.62C323.234 16.62 323.714 16.4867 324.127 16.22C324.541 15.9533 324.861 15.56 325.087 15.04C325.327 14.52 325.447 13.88 325.447 13.12C325.447 11.9733 325.194 11.1067 324.687 10.52C324.181 9.93333 323.514 9.64 322.687 9.64C322.127 9.64 321.641 9.77333 321.227 10.04C320.814 10.2933 320.487 10.68 320.247 11.2C320.021 11.72 319.907 12.36 319.907 13.12C319.907 14.2533 320.161 15.12 320.667 15.72C321.174 16.32 321.847 16.62 322.687 16.62ZM330.756 21.74C330.436 21.74 330.189 21.6533 330.016 21.48C329.843 21.3067 329.756 21.0533 329.756 20.72V9.12C329.756 8.78667 329.843 8.53333 330.016 8.36C330.189 8.18667 330.429 8.1 330.736 8.1C331.056 8.1 331.303 8.18667 331.476 8.36C331.649 8.53333 331.736 8.78667 331.736 9.12V10.86L331.516 10.44C331.729 9.72 332.149 9.14667 332.776 8.72C333.403 8.28 334.143 8.06 334.996 8.06C335.863 8.06 336.616 8.26667 337.256 8.68C337.909 9.09333 338.409 9.67333 338.756 10.42C339.116 11.1667 339.296 12.0667 339.296 13.12C339.296 14.1467 339.116 15.0467 338.756 15.82C338.409 16.58 337.916 17.1667 337.276 17.58C336.636 17.98 335.876 18.18 334.996 18.18C334.156 18.18 333.423 17.9667 332.796 17.54C332.169 17.1133 331.749 16.5467 331.536 15.84H331.776V20.72C331.776 21.0533 331.683 21.3067 331.496 21.48C331.323 21.6533 331.076 21.74 330.756 21.74ZM334.496 16.62C335.056 16.62 335.543 16.4867 335.956 16.22C336.369 15.9533 336.689 15.56 336.916 15.04C337.143 14.52 337.256 13.88 337.256 13.12C337.256 11.9733 337.003 11.1067 336.496 10.52C336.003 9.93333 335.336 9.64 334.496 9.64C333.949 9.64 333.463 9.77333 333.036 10.04C332.623 10.2933 332.303 10.68 332.076 11.2C331.849 11.72 331.736 12.36 331.736 13.12C331.736 14.2533 331.989 15.12 332.496 15.72C333.003 16.32 333.669 16.62 334.496 16.62ZM345.635 18.18C344.835 18.18 344.161 18.04 343.615 17.76C343.068 17.48 342.661 17.0667 342.395 16.52C342.128 15.9733 341.995 15.3067 341.995 14.52V9.8H340.795C340.528 9.8 340.321 9.73333 340.175 9.6C340.028 9.45333 339.955 9.26 339.955 9.02C339.955 8.76667 340.028 8.57333 340.175 8.44C340.321 8.30667 340.528 8.24 340.795 8.24H341.995V6.18C341.995 5.84667 342.081 5.59333 342.255 5.42C342.441 5.24667 342.695 5.16 343.015 5.16C343.335 5.16 343.581 5.24667 343.755 5.42C343.928 5.59333 344.015 5.84667 344.015 6.18V8.24H346.355C346.621 8.24 346.828 8.30667 346.975 8.44C347.121 8.57333 347.195 8.76667 347.195 9.02C347.195 9.26 347.121 9.45333 346.975 9.6C346.828 9.73333 346.621 9.8 346.355 9.8H344.015V14.36C344.015 15.0667 344.161 15.6 344.455 15.96C344.761 16.32 345.255 16.5 345.935 16.5C346.175 16.5 346.381 16.48 346.555 16.44C346.741 16.3867 346.895 16.3533 347.015 16.34C347.161 16.34 347.281 16.3933 347.375 16.5C347.468 16.5933 347.515 16.78 347.515 17.06C347.515 17.26 347.475 17.4467 347.395 17.62C347.328 17.7933 347.201 17.9067 347.015 17.96C346.855 18.0133 346.635 18.06 346.355 18.1C346.088 18.1533 345.848 18.18 345.635 18.18Z" fill="#949494"/>
<path d="M409.39 18.18C407.857 18.18 406.564 17.8933 405.51 17.32C404.457 16.7333 403.657 15.9 403.11 14.82C402.577 13.74 402.31 12.4533 402.31 10.96C402.31 9.84 402.464 8.84 402.77 7.96C403.09 7.06667 403.544 6.30667 404.13 5.68C404.73 5.04 405.457 4.55333 406.31 4.22C407.177 3.88667 408.157 3.72 409.25 3.72C410.05 3.72 410.837 3.82667 411.61 4.04C412.384 4.24 413.09 4.57333 413.73 5.04C413.917 5.17333 414.037 5.32667 414.09 5.5C414.144 5.67333 414.144 5.85333 414.09 6.04C414.05 6.21333 413.964 6.36667 413.83 6.5C413.71 6.63333 413.557 6.71333 413.37 6.74C413.197 6.76667 413.004 6.71333 412.79 6.58C412.27 6.22 411.724 5.96 411.15 5.8C410.577 5.62667 409.944 5.54 409.25 5.54C408.21 5.54 407.33 5.75333 406.61 6.18C405.904 6.60667 405.37 7.22667 405.01 8.04C404.65 8.84 404.47 9.81333 404.47 10.96C404.47 12.7333 404.89 14.08 405.73 15C406.57 15.92 407.817 16.38 409.47 16.38C410.07 16.38 410.657 16.3267 411.23 16.22C411.817 16.1 412.377 15.9333 412.91 15.72L412.49 16.76V12.1H409.91C409.644 12.1 409.43 12.0333 409.27 11.9C409.124 11.7533 409.05 11.5533 409.05 11.3C409.05 11.0467 409.124 10.86 409.27 10.74C409.43 10.6067 409.644 10.54 409.91 10.54H413.37C413.65 10.54 413.864 10.6133 414.01 10.76C414.157 10.9067 414.23 11.12 414.23 11.4V16.44C414.23 16.68 414.184 16.8867 414.09 17.06C414.01 17.22 413.87 17.34 413.67 17.42C413.097 17.6467 412.424 17.8333 411.65 17.98C410.877 18.1133 410.124 18.18 409.39 18.18ZM420.319 18.18C419.639 18.18 419.026 18.0467 418.479 17.78C417.946 17.5133 417.526 17.1533 417.219 16.7C416.913 16.2467 416.759 15.7333 416.759 15.16C416.759 14.44 416.939 13.8733 417.299 13.46C417.673 13.0333 418.279 12.7333 419.119 12.56C419.973 12.3733 421.119 12.28 422.559 12.28H423.499V13.52H422.579C421.619 13.52 420.859 13.5667 420.299 13.66C419.739 13.7533 419.339 13.9133 419.099 14.14C418.873 14.3533 418.759 14.6533 418.759 15.04C418.759 15.5467 418.933 15.96 419.279 16.28C419.626 16.5867 420.106 16.74 420.719 16.74C421.213 16.74 421.646 16.6267 422.019 16.4C422.393 16.16 422.686 15.84 422.899 15.44C423.126 15.04 423.239 14.58 423.239 14.06V11.76C423.239 11 423.079 10.4533 422.759 10.12C422.439 9.78667 421.913 9.62 421.179 9.62C420.753 9.62 420.306 9.67333 419.839 9.78C419.386 9.88667 418.913 10.0667 418.419 10.32C418.193 10.4267 417.999 10.46 417.839 10.42C417.679 10.38 417.553 10.2933 417.459 10.16C417.366 10.0133 417.313 9.86 417.299 9.7C417.299 9.52667 417.339 9.36 417.419 9.2C417.513 9.04 417.666 8.92 417.879 8.84C418.466 8.56 419.046 8.36 419.619 8.24C420.193 8.12 420.733 8.06 421.239 8.06C422.133 8.06 422.866 8.2 423.439 8.48C424.026 8.76 424.459 9.18667 424.739 9.76C425.019 10.3333 425.159 11.0733 425.159 11.98V17.12C425.159 17.44 425.079 17.6933 424.919 17.88C424.759 18.0533 424.526 18.14 424.219 18.14C423.926 18.14 423.693 18.0533 423.519 17.88C423.346 17.6933 423.259 17.44 423.259 17.12V15.82H423.439C423.333 16.3133 423.133 16.74 422.839 17.1C422.559 17.4467 422.206 17.7133 421.779 17.9C421.353 18.0867 420.866 18.18 420.319 18.18ZM431.081 18.18C430.041 18.18 429.255 17.88 428.721 17.28C428.201 16.6667 427.941 15.7867 427.941 14.64V4.78C427.941 4.44667 428.028 4.19333 428.201 4.02C428.375 3.84667 428.621 3.76 428.941 3.76C429.261 3.76 429.508 3.84667 429.681 4.02C429.868 4.19333 429.961 4.44667 429.961 4.78V14.52C429.961 15.1867 430.095 15.6867 430.361 16.02C430.641 16.34 431.041 16.5 431.561 16.5C431.681 16.5 431.788 16.5 431.881 16.5C431.975 16.4867 432.068 16.4733 432.161 16.46C432.321 16.4467 432.435 16.4933 432.501 16.6C432.568 16.6933 432.601 16.8933 432.601 17.2C432.601 17.48 432.541 17.7 432.421 17.86C432.301 18.0067 432.108 18.1 431.841 18.14C431.721 18.1533 431.595 18.16 431.461 18.16C431.328 18.1733 431.201 18.18 431.081 18.18ZM437.195 18.18C436.155 18.18 435.368 17.88 434.835 17.28C434.315 16.6667 434.055 15.7867 434.055 14.64V4.78C434.055 4.44667 434.141 4.19333 434.315 4.02C434.488 3.84667 434.735 3.76 435.055 3.76C435.375 3.76 435.621 3.84667 435.795 4.02C435.981 4.19333 436.075 4.44667 436.075 4.78V14.52C436.075 15.1867 436.208 15.6867 436.475 16.02C436.755 16.34 437.155 16.5 437.675 16.5C437.795 16.5 437.901 16.5 437.995 16.5C438.088 16.4867 438.181 16.4733 438.275 16.46C438.435 16.4467 438.548 16.4933 438.615 16.6C438.681 16.6933 438.715 16.8933 438.715 17.2C438.715 17.48 438.655 17.7 438.535 17.86C438.415 18.0067 438.221 18.1 437.955 18.14C437.835 18.1533 437.708 18.16 437.575 18.16C437.441 18.1733 437.315 18.18 437.195 18.18ZM444.65 18.18C443.584 18.18 442.664 17.98 441.89 17.58C441.13 17.1667 440.537 16.5867 440.11 15.84C439.697 15.08 439.49 14.18 439.49 13.14C439.49 12.1267 439.697 11.24 440.11 10.48C440.524 9.72 441.09 9.12667 441.81 8.7C442.53 8.27333 443.35 8.06 444.27 8.06C444.95 8.06 445.557 8.17333 446.09 8.4C446.624 8.61333 447.077 8.93333 447.45 9.36C447.837 9.77333 448.124 10.28 448.31 10.88C448.51 11.48 448.61 12.1533 448.61 12.9C448.61 13.1267 448.544 13.3 448.41 13.42C448.277 13.5267 448.077 13.58 447.81 13.58H441.09V12.34H447.25L446.91 12.62C446.91 11.9533 446.81 11.3867 446.61 10.92C446.424 10.4533 446.137 10.1 445.75 9.86C445.377 9.60667 444.91 9.48 444.35 9.48C443.724 9.48 443.19 9.62667 442.75 9.92C442.324 10.2133 441.997 10.62 441.77 11.14C441.544 11.66 441.43 12.2667 441.43 12.96V13.08C441.43 14.2533 441.704 15.14 442.25 15.74C442.81 16.3267 443.617 16.62 444.67 16.62C445.07 16.62 445.49 16.5667 445.93 16.46C446.384 16.3533 446.81 16.1733 447.21 15.92C447.437 15.7867 447.637 15.7267 447.81 15.74C447.997 15.7533 448.144 15.8133 448.25 15.92C448.37 16.0267 448.444 16.16 448.47 16.32C448.497 16.48 448.47 16.6467 448.39 16.82C448.31 16.98 448.17 17.1267 447.97 17.26C447.517 17.5667 446.99 17.8 446.39 17.96C445.79 18.1067 445.21 18.18 444.65 18.18ZM451.833 18.14C451.499 18.14 451.246 18.0533 451.073 17.88C450.899 17.6933 450.813 17.44 450.813 17.12V9.12C450.813 8.78667 450.899 8.53333 451.073 8.36C451.246 8.18667 451.486 8.1 451.793 8.1C452.113 8.1 452.353 8.18667 452.513 8.36C452.686 8.53333 452.773 8.78667 452.773 9.12V10.58H452.573C452.786 9.78 453.179 9.17333 453.753 8.76C454.326 8.34667 455.059 8.10667 455.953 8.04C456.193 8.02667 456.379 8.08667 456.513 8.22C456.659 8.35333 456.739 8.56 456.753 8.84C456.779 9.12 456.719 9.34667 456.573 9.52C456.426 9.68 456.199 9.77333 455.893 9.8L455.513 9.84C454.646 9.92 453.986 10.1933 453.533 10.66C453.079 11.1267 452.853 11.7667 452.853 12.58V17.12C452.853 17.44 452.766 17.6933 452.593 17.88C452.433 18.0533 452.179 18.14 451.833 18.14ZM461.179 21.74C460.939 21.74 460.739 21.6733 460.579 21.54C460.432 21.42 460.346 21.2533 460.319 21.04C460.306 20.84 460.346 20.62 460.439 20.38L461.799 17.32V18.18L458.059 9.48C457.966 9.24 457.932 9.01333 457.959 8.8C457.986 8.58667 458.086 8.42 458.259 8.3C458.432 8.16667 458.666 8.1 458.959 8.1C459.212 8.1 459.412 8.16 459.559 8.28C459.706 8.4 459.839 8.60667 459.959 8.9L462.979 16.36H462.419L465.479 8.9C465.599 8.59333 465.739 8.38667 465.899 8.28C466.059 8.16 466.279 8.1 466.559 8.1C466.799 8.1 466.986 8.16667 467.119 8.3C467.266 8.42 467.352 8.58667 467.379 8.8C467.419 9 467.386 9.22 467.279 9.46L462.279 20.96C462.146 21.2667 461.992 21.4733 461.819 21.58C461.659 21.6867 461.446 21.74 461.179 21.74Z" fill="#949494"/>
<path d="M526.374 18.14C526.041 18.14 525.781 18.0467 525.594 17.86C525.421 17.6733 525.334 17.4133 525.334 17.08V5.64H521.094C520.814 5.64 520.594 5.56667 520.434 5.42C520.274 5.26 520.194 5.04 520.194 4.76C520.194 4.48 520.274 4.26667 520.434 4.12C520.594 3.97333 520.814 3.9 521.094 3.9H531.634C531.927 3.9 532.154 3.97333 532.314 4.12C532.474 4.26667 532.554 4.48 532.554 4.76C532.554 5.04 532.474 5.26 532.314 5.42C532.154 5.56667 531.927 5.64 531.634 5.64H527.394V17.08C527.394 17.4133 527.307 17.6733 527.134 17.86C526.974 18.0467 526.721 18.14 526.374 18.14ZM536.938 18.18C535.871 18.18 534.951 17.98 534.178 17.58C533.418 17.1667 532.824 16.5867 532.398 15.84C531.984 15.08 531.778 14.18 531.778 13.14C531.778 12.1267 531.984 11.24 532.398 10.48C532.811 9.72 533.378 9.12667 534.098 8.7C534.818 8.27333 535.638 8.06 536.558 8.06C537.238 8.06 537.844 8.17333 538.378 8.4C538.911 8.61333 539.364 8.93333 539.738 9.36C540.124 9.77333 540.411 10.28 540.598 10.88C540.798 11.48 540.898 12.1533 540.898 12.9C540.898 13.1267 540.831 13.3 540.698 13.42C540.564 13.5267 540.364 13.58 540.098 13.58H533.378V12.34H539.538L539.198 12.62C539.198 11.9533 539.098 11.3867 538.898 10.92C538.711 10.4533 538.424 10.1 538.038 9.86C537.664 9.60667 537.198 9.48 536.638 9.48C536.011 9.48 535.478 9.62667 535.038 9.92C534.611 10.2133 534.284 10.62 534.058 11.14C533.831 11.66 533.718 12.2667 533.718 12.96V13.08C533.718 14.2533 533.991 15.14 534.538 15.74C535.098 16.3267 535.904 16.62 536.958 16.62C537.358 16.62 537.778 16.5667 538.218 16.46C538.671 16.3533 539.098 16.1733 539.498 15.92C539.724 15.7867 539.924 15.7267 540.098 15.74C540.284 15.7533 540.431 15.8133 540.538 15.92C540.658 16.0267 540.731 16.16 540.758 16.32C540.784 16.48 540.758 16.6467 540.678 16.82C540.598 16.98 540.458 17.1267 540.258 17.26C539.804 17.5667 539.278 17.8 538.678 17.96C538.078 18.1067 537.498 18.18 536.938 18.18ZM546.22 18.18C545.54 18.18 544.926 18.0467 544.38 17.78C543.846 17.5133 543.426 17.1533 543.12 16.7C542.813 16.2467 542.66 15.7333 542.66 15.16C542.66 14.44 542.84 13.8733 543.2 13.46C543.573 13.0333 544.18 12.7333 545.02 12.56C545.873 12.3733 547.02 12.28 548.46 12.28H549.4V13.52H548.48C547.52 13.52 546.76 13.5667 546.2 13.66C545.64 13.7533 545.24 13.9133 545 14.14C544.773 14.3533 544.66 14.6533 544.66 15.04C544.66 15.5467 544.833 15.96 545.18 16.28C545.526 16.5867 546.006 16.74 546.62 16.74C547.113 16.74 547.546 16.6267 547.92 16.4C548.293 16.16 548.586 15.84 548.8 15.44C549.026 15.04 549.14 14.58 549.14 14.06V11.76C549.14 11 548.98 10.4533 548.66 10.12C548.34 9.78667 547.813 9.62 547.08 9.62C546.653 9.62 546.206 9.67333 545.74 9.78C545.286 9.88667 544.813 10.0667 544.32 10.32C544.093 10.4267 543.9 10.46 543.74 10.42C543.58 10.38 543.453 10.2933 543.36 10.16C543.266 10.0133 543.213 9.86 543.2 9.7C543.2 9.52667 543.24 9.36 543.32 9.2C543.413 9.04 543.566 8.92 543.78 8.84C544.366 8.56 544.946 8.36 545.52 8.24C546.093 8.12 546.633 8.06 547.14 8.06C548.033 8.06 548.766 8.2 549.34 8.48C549.926 8.76 550.36 9.18667 550.64 9.76C550.92 10.3333 551.06 11.0733 551.06 11.98V17.12C551.06 17.44 550.98 17.6933 550.82 17.88C550.66 18.0533 550.426 18.14 550.12 18.14C549.826 18.14 549.593 18.0533 549.42 17.88C549.246 17.6933 549.16 17.44 549.16 17.12V15.82H549.34C549.233 16.3133 549.033 16.74 548.74 17.1C548.46 17.4467 548.106 17.7133 547.68 17.9C547.253 18.0867 546.766 18.18 546.22 18.18ZM554.882 18.14C554.562 18.14 554.315 18.0533 554.142 17.88C553.969 17.6933 553.882 17.44 553.882 17.12V9.12C553.882 8.78667 553.969 8.53333 554.142 8.36C554.315 8.18667 554.555 8.1 554.862 8.1C555.182 8.1 555.422 8.18667 555.582 8.36C555.755 8.53333 555.842 8.78667 555.842 9.12V10.76L555.622 10.32C555.889 9.61333 556.302 9.06 556.862 8.66C557.422 8.26 558.095 8.06 558.882 8.06C559.695 8.06 560.355 8.25333 560.862 8.64C561.369 9.02667 561.715 9.62 561.902 10.42H561.622C561.875 9.68667 562.309 9.11333 562.922 8.7C563.535 8.27333 564.249 8.06 565.062 8.06C565.809 8.06 566.422 8.20667 566.902 8.5C567.382 8.78 567.742 9.21333 567.982 9.8C568.222 10.3733 568.342 11.1 568.342 11.98V17.12C568.342 17.44 568.249 17.6933 568.062 17.88C567.889 18.0533 567.642 18.14 567.322 18.14C567.002 18.14 566.755 18.0533 566.582 17.88C566.409 17.6933 566.322 17.44 566.322 17.12V12.08C566.322 11.2533 566.175 10.6467 565.882 10.26C565.602 9.87333 565.135 9.68 564.482 9.68C563.749 9.68 563.169 9.93333 562.742 10.44C562.315 10.9467 562.102 11.6467 562.102 12.54V17.12C562.102 17.44 562.015 17.6933 561.842 17.88C561.669 18.0533 561.422 18.14 561.102 18.14C560.782 18.14 560.529 18.0533 560.342 17.88C560.169 17.6933 560.082 17.44 560.082 17.12V12.08C560.082 11.2533 559.942 10.6467 559.662 10.26C559.382 9.87333 558.915 9.68 558.262 9.68C557.529 9.68 556.949 9.93333 556.522 10.44C556.109 10.9467 555.902 11.6467 555.902 12.54V17.12C555.902 17.8 555.562 18.14 554.882 18.14Z" fill="#949494"/>
<path d="M612.779 18.14C612.432 18.14 612.159 18.0467 611.959 17.86C611.772 17.6733 611.679 17.4 611.679 17.04V5.02C611.679 4.66 611.772 4.38667 611.959 4.2C612.159 4 612.439 3.9 612.799 3.9H619.919C620.212 3.9 620.426 3.97333 620.559 4.12C620.706 4.25333 620.779 4.45333 620.779 4.72C620.779 5 620.706 5.21333 620.559 5.36C620.426 5.50667 620.212 5.58 619.919 5.58H613.759V10.08H619.519C619.786 10.08 619.992 10.1533 620.139 10.3C620.299 10.4333 620.379 10.6333 620.379 10.9C620.379 11.18 620.299 11.3933 620.139 11.54C619.992 11.6867 619.786 11.76 619.519 11.76H613.759V17.04C613.759 17.7733 613.432 18.14 612.779 18.14ZM621.56 18.14C621.293 18.14 621.08 18.08 620.92 17.96C620.76 17.84 620.667 17.68 620.64 17.48C620.613 17.28 620.653 17.0533 620.76 16.8L626.18 4.64C626.313 4.32 626.48 4.09333 626.68 3.96C626.893 3.82667 627.127 3.76 627.38 3.76C627.62 3.76 627.84 3.82667 628.04 3.96C628.253 4.09333 628.427 4.32 628.56 4.64L633.98 16.8C634.1 17.0533 634.147 17.2867 634.12 17.5C634.093 17.7 634.007 17.86 633.86 17.98C633.713 18.0867 633.507 18.14 633.24 18.14C632.947 18.14 632.713 18.0667 632.54 17.92C632.367 17.7733 632.213 17.5467 632.08 17.24L630.68 14L631.62 14.56H623.1L624.02 14L622.64 17.24C622.507 17.56 622.36 17.7933 622.2 17.94C622.04 18.0733 621.827 18.14 621.56 18.14ZM627.34 6.2L624.32 13.36L623.82 12.88H630.88L630.42 13.36L627.38 6.2H627.34ZM647.313 20.48C647.473 20.72 647.54 20.94 647.513 21.14C647.486 21.34 647.4 21.5067 647.253 21.64C647.12 21.7867 646.946 21.8733 646.733 21.9C646.533 21.94 646.326 21.92 646.113 21.84C645.913 21.76 645.74 21.6 645.593 21.36L644.273 19.22C644.073 18.8867 643.8 18.6267 643.453 18.44C643.106 18.2667 642.686 18.18 642.193 18.18L643.833 17.52C644.46 17.52 644.953 17.6333 645.313 17.86C645.686 18.0733 646.053 18.4667 646.413 19.04L647.313 20.48ZM642.213 18.18C640.88 18.18 639.713 17.8867 638.713 17.3C637.726 16.7 636.96 15.86 636.413 14.78C635.88 13.6867 635.613 12.4067 635.613 10.94C635.613 9.83333 635.766 8.84 636.073 7.96C636.38 7.06667 636.82 6.30667 637.393 5.68C637.966 5.04 638.66 4.55333 639.473 4.22C640.286 3.88667 641.2 3.72 642.213 3.72C643.56 3.72 644.726 4.01333 645.713 4.6C646.7 5.18667 647.46 6.02 647.993 7.1C648.54 8.18 648.813 9.45333 648.813 10.92C648.813 12.0267 648.66 13.0267 648.353 13.92C648.046 14.8133 647.6 15.58 647.013 16.22C646.44 16.86 645.746 17.3467 644.933 17.68C644.12 18.0133 643.213 18.18 642.213 18.18ZM642.213 16.38C643.146 16.38 643.94 16.1667 644.593 15.74C645.26 15.3133 645.766 14.6933 646.113 13.88C646.473 13.0667 646.653 12.0867 646.653 10.94C646.653 9.22 646.266 7.88667 645.493 6.94C644.72 5.99333 643.626 5.52 642.213 5.52C641.28 5.52 640.48 5.73333 639.813 6.16C639.16 6.57333 638.653 7.18667 638.293 8C637.946 8.81333 637.773 9.79333 637.773 10.94C637.773 12.6467 638.16 13.98 638.933 14.94C639.72 15.9 640.813 16.38 642.213 16.38Z" fill="#949494"/>
<rect x="7" y="27.7285" width="59" height="4" fill="#E84F92"/>
</svg>
