<svg width="24" height="25" viewBox="0 0 24 25" fill="none" xmlns="http://www.w3.org/2000/svg">
<path fill-rule="evenodd" clip-rule="evenodd" d="M5.67855 0.917971C3.14763 1.27508 0.977139 3.17685 0.197142 5.72095C0.0148928 6.31516 0 6.85805 0 12.8995C0 18.9409 0.0148928 19.4838 0.197142 20.078C0.885318 22.3225 2.57699 24.0141 4.82141 24.7023C5.41562 24.8845 5.95851 24.8994 11.9999 24.8994C19.3063 24.8994 19.0125 24.9263 20.5713 24.1147C21.5664 23.5967 22.6972 22.4659 23.2152 21.4709C24.0268 19.9121 23.9999 20.2059 23.9999 12.8995C23.9999 6.85805 23.985 6.31516 23.8028 5.72095C23.1225 3.50246 21.4785 1.84079 19.2321 1.10118C18.6928 0.923649 18.106 0.905649 12.3214 0.889899C8.8446 0.880364 5.85533 0.893006 5.67855 0.917971ZM18.7169 3.20064C20.0126 3.60092 21.0946 4.6012 21.6167 5.88166C21.8565 6.46966 21.857 6.48552 21.857 12.8995C21.857 19.3135 21.8565 19.3293 21.6167 19.9173C21.0946 21.1978 20.0126 22.1981 18.7169 22.5983C18.068 22.7987 17.7053 22.8102 11.9999 22.8102C6.29462 22.8102 5.93194 22.7987 5.28298 22.5983C3.9873 22.1981 2.90527 21.1978 2.38317 19.9173C2.14338 19.3293 2.14285 19.3135 2.14285 12.8995C2.14285 6.48552 2.14338 6.46966 2.38317 5.88166C2.89788 4.61942 3.98077 3.60724 5.24591 3.206C5.85062 3.01421 6.28894 3.0005 11.9619 2.99482C17.7147 2.98914 18.0667 2.99985 18.7169 3.20064ZM17.657 5.12738C17.218 5.39492 16.9476 5.91841 16.9469 6.5018C16.9456 7.56916 18.181 8.3304 19.1228 7.84258C20.1916 7.28909 20.2936 5.75459 19.3023 5.14206C18.836 4.85374 18.1161 4.84731 17.657 5.12738ZM10.4464 6.90841C9.34807 7.19812 8.51536 7.68712 7.64965 8.55101C6.39629 9.80157 5.83926 11.1395 5.83926 12.8995C5.83926 13.9608 5.99858 14.6679 6.45469 15.6316C7.19868 17.2036 8.95614 18.5942 10.6391 18.9426C11.3664 19.0932 12.6335 19.0932 13.3608 18.9426C15.5506 18.4893 17.5898 16.4502 18.0431 14.2603C18.1936 13.533 18.1936 12.266 18.0431 11.5387C17.5966 9.3819 15.7237 7.46844 13.5042 6.90187C12.7106 6.69927 11.2271 6.70237 10.4464 6.90841ZM13.2704 9.05597C15.5789 9.7614 16.7276 12.5148 15.6311 14.7147C14.4058 17.1734 11.0397 17.7107 9.12489 15.7534C7.55075 14.1445 7.56018 11.5757 9.146 10.0244C10.2705 8.9244 11.7234 8.58315 13.2704 9.05597Z" fill="#E84F92"/>
</svg>
