<svg width="50" height="260" viewBox="0 0 50 260" fill="none" xmlns="http://www.w3.org/2000/svg">
<path d="M0 16C0 7.16344 7.16344 0 16 0H50V260H16C7.16344 260 0 252.837 0 244V16Z" fill="#4F5B88"/>
<path d="M0 68.0947H50V126.893H0V68.0947Z" fill="#4F5B88"/>
<path fill-rule="evenodd" clip-rule="evenodd" d="M25.3805 93.6133C25.3649 104.641 25.4064 103.579 24.9551 104.492C24.3132 105.792 23.0614 106.627 21.6051 106.727C19.7889 106.852 18.0683 105.679 17.4931 103.923C17.2974 103.326 17.2645 102.386 17.4177 101.771C17.8935 99.8637 19.6098 98.5781 21.5358 98.6868C21.8216 98.7029 22.1776 98.7492 22.327 98.7895L22.5986 98.863V96.5971V94.3311L22.3529 94.2898C21.9256 94.2179 20.4919 94.2504 19.9364 94.3446C15.6622 95.0685 12.608 98.7734 12.7836 103.021C12.8623 104.925 13.4869 106.553 14.7265 108.085C15.8732 109.503 17.718 110.614 19.5414 110.985C21.8707 111.46 24.27 110.99 26.1723 109.687C28.2436 108.269 29.528 106.151 29.84 103.64C29.8749 103.359 29.8945 101.326 29.8945 97.9873V92.7731L30.1266 92.9503C30.2543 93.0477 30.565 93.2551 30.8172 93.411C32.4236 94.4048 34.2789 94.9904 36.1147 95.0833L36.7764 95.1168V92.8839V90.6509L36.5047 90.6506C35.7874 90.6499 34.7906 90.4166 33.9803 90.06C31.6331 89.027 29.9991 86.6668 29.8848 84.1442L29.8701 83.8208H27.6323H25.3943L25.3805 93.6133Z" fill="white"/>
<path fill-rule="evenodd" clip-rule="evenodd" d="M18.6785 150.525C16.1476 150.882 13.9771 152.784 13.1971 155.328C13.0149 155.922 13 156.465 13 162.506C13 168.548 13.0149 169.091 13.1971 169.685C13.8853 171.929 15.577 173.621 17.8214 174.309C18.4156 174.491 18.9585 174.506 24.9999 174.506C32.3063 174.506 32.0125 174.533 33.5713 173.722C34.5664 173.204 35.6972 172.073 36.2152 171.078C37.0268 169.519 36.9999 169.813 36.9999 162.506C36.9999 156.465 36.985 155.922 36.8028 155.328C36.1225 153.109 34.4785 151.448 32.2321 150.708C31.6928 150.531 31.106 150.513 25.3214 150.497C21.8446 150.487 18.8553 150.5 18.6785 150.525ZM31.7169 152.808C33.0126 153.208 34.0946 154.208 34.6167 155.489C34.8565 156.077 34.857 156.092 34.857 162.506C34.857 168.92 34.8565 168.936 34.6167 169.524C34.0946 170.805 33.0126 171.805 31.7169 172.205C31.068 172.406 30.7053 172.417 24.9999 172.417C19.2946 172.417 18.9319 172.406 18.283 172.205C16.9873 171.805 15.9053 170.805 15.3832 169.524C15.1434 168.936 15.1428 168.92 15.1428 162.506C15.1428 156.092 15.1434 156.077 15.3832 155.489C15.8979 154.226 16.9808 153.214 18.2459 152.813C18.8506 152.621 19.2889 152.607 24.9619 152.602C30.7147 152.596 31.0667 152.607 31.7169 152.808ZM30.657 154.734C30.218 155.002 29.9476 155.525 29.9469 156.109C29.9456 157.176 31.181 157.937 32.1228 157.45C33.1916 156.896 33.2936 155.362 32.3023 154.749C31.836 154.461 31.1161 154.454 30.657 154.734ZM23.4464 156.515C22.3481 156.805 21.5154 157.294 20.6496 158.158C19.3963 159.409 18.8393 160.746 18.8393 162.506C18.8393 163.568 18.9986 164.275 19.4547 165.239C20.1987 166.811 21.9561 168.201 23.6391 168.55C24.3664 168.7 25.6335 168.7 26.3608 168.55C28.5506 168.096 30.5898 166.057 31.0431 163.867C31.1936 163.14 31.1936 161.873 31.0431 161.146C30.5966 158.989 28.7237 157.075 26.5042 156.509C25.7106 156.306 24.2271 156.309 23.4464 156.515ZM26.2704 158.663C28.5789 159.368 29.7276 162.122 28.6311 164.322C27.4058 166.78 24.0397 167.318 22.1249 165.36C20.5508 163.751 20.5602 161.183 22.146 159.631C23.2705 158.531 24.7234 158.19 26.2704 158.663Z" fill="white"/>
<path fill-rule="evenodd" clip-rule="evenodd" d="M17.86 20.8025C15.6291 21.4668 14.1754 22.1174 13.6102 22.7044C12.8553 23.4887 12.0799 24.9173 10.9772 27.5556C9.54401 30.985 9.24801 32.1143 8.95781 35.2598C8.64845 38.6148 8.84596 40.2021 9.67596 41.0285C10.5868 41.9351 14.4166 43.9665 16.0134 44.3899C16.5996 44.5451 16.7094 44.536 17.1425 44.2956C17.4298 44.1361 17.8118 43.7204 18.0946 43.2598C18.7158 42.2478 18.6448 41.9312 17.6891 41.4497C16.4651 40.8331 16.241 40.6247 16.241 40.1034C16.241 39.4562 16.5436 39.3824 17.1613 39.8787C18.7028 41.1175 21.1021 41.663 25.0105 41.663C28.9188 41.663 31.3181 41.1175 32.8596 39.8787C33.4773 39.3824 33.7799 39.4562 33.7799 40.1034C33.7799 40.6247 33.5558 40.8331 32.3319 41.4497C31.3761 41.9312 31.3052 42.2478 31.9263 43.2598C32.2091 43.7204 32.5912 44.1361 32.8784 44.2956C33.3115 44.536 33.4213 44.5451 34.0075 44.3899C35.6061 43.966 39.4344 41.9348 40.347 41.0263C41.0817 40.2949 41.255 39.4192 41.154 36.9462C41.0035 33.2573 40.6337 31.4424 39.4249 28.4592C37.6756 24.1418 36.7741 22.6883 35.4372 22.0298C34.3803 21.5092 31.8444 20.6471 31.0496 20.5381C30.1829 20.4192 29.5559 20.7487 29.1832 21.5184C28.9259 22.0499 28.8503 22.1119 28.5364 22.0479C26.1292 21.5578 23.8918 21.5578 21.4845 22.0479C21.1707 22.1119 21.095 22.0499 20.8377 21.5184C20.5216 20.8652 19.9288 20.4813 19.2562 20.494C19.0448 20.4979 18.4165 20.6367 17.86 20.8025ZM20.6646 30.9277C22.4885 31.8709 22.8923 34.5945 21.4236 36.0481C20.8235 36.642 20.293 36.8645 19.4648 36.8696C17.261 36.8832 15.8757 34.2827 16.993 32.2298C17.7588 30.8227 19.362 30.2542 20.6646 30.9277ZM32.0117 31.1129C33.9056 32.2926 33.876 35.2772 31.9584 36.4717C30.039 37.6676 27.7147 36.191 27.7147 33.7757C27.7147 31.32 30.0353 29.882 32.0117 31.1129Z" fill="white"/>
<path fill-rule="evenodd" clip-rule="evenodd" d="M28.8327 215.739C27.1951 216.344 26.0439 217.411 25.2584 219.052C24.8066 219.995 24.7848 220.106 24.7804 221.48L24.7758 222.92L23.9815 222.833C19.9779 222.394 16.64 220.821 13.6445 217.961C12.8907 217.241 12.2143 216.689 12.1414 216.734C11.8714 216.901 11.4719 218.555 11.4719 219.505C11.4719 221.326 12.113 222.869 13.3526 224.031L13.9757 224.615L13.5512 224.611C13.1809 224.607 12.3409 224.358 11.5593 224.021C11.3331 223.924 11.3225 223.971 11.4092 224.696C11.6712 226.884 13.2817 228.958 15.277 229.676C16.273 230.035 16.1141 230.152 14.6159 230.166C13.8877 230.173 13.5904 230.223 13.5911 230.341C13.5938 230.683 14.4423 231.97 15.0661 232.577C15.8565 233.347 17.3824 234.124 18.3224 234.234C18.7046 234.279 19.0174 234.361 19.0174 234.416C19.0174 234.471 18.7344 234.696 18.3886 234.916C16.334 236.221 14.5219 236.786 12.0014 236.907L10.2144 236.993L11.6223 237.69C14.55 239.141 16.1485 239.504 19.6131 239.506C22.3242 239.508 23.318 239.367 25.3307 238.694C30.2728 237.042 34.3034 232.901 36.0045 227.726C36.5451 226.082 36.7515 225.021 36.8934 223.155L37.0244 221.434L38.0243 220.484C39.0487 219.511 39.8752 218.557 39.7777 218.459C39.7476 218.429 39.2788 218.543 38.7358 218.713C38.1929 218.883 37.5104 219.065 37.2192 219.117L36.6897 219.212L37.5648 218.305C38.3698 217.471 39.3003 216.011 39.0268 216.011C38.9628 216.011 38.53 216.183 38.0648 216.393C36.9375 216.903 35.4427 217.356 35.2535 217.245C35.1697 217.195 34.8588 216.959 34.5624 216.719C34.2661 216.479 33.6704 216.119 33.2386 215.919C32.5587 215.604 32.2586 215.55 30.9975 215.516C29.8062 215.484 29.4125 215.525 28.8327 215.739Z" fill="white"/>
</svg>
