<svg width="71" height="23" viewBox="0 0 71 23" fill="none" xmlns="http://www.w3.org/2000/svg">
<path d="M66.2186 2.782C64.3724 1.94938 62.3934 1.33397 60.3239 0.984029C60.3055 0.980491 60.2864 0.982771 60.2693 0.990554C60.2523 0.998337 60.238 1.01124 60.2286 1.02747C59.9752 1.47274 59.6928 2.05316 59.4949 2.5117C57.3001 2.18377 55.0687 2.18377 52.8738 2.5117C52.6534 2.00352 52.4048 1.508 52.1293 1.02747C52.1199 1.01104 52.1058 0.997845 52.0888 0.989652C52.0717 0.981459 52.0526 0.978655 52.0339 0.981615C49.9657 1.33156 47.9867 1.94697 46.1392 2.78079C46.1234 2.78746 46.1099 2.79883 46.1006 2.81337C42.3454 8.33399 41.3161 13.7183 41.8217 19.0349C41.8231 19.048 41.8272 19.0606 41.8336 19.072C41.84 19.0834 41.8487 19.0934 41.8591 19.1013C44.0509 20.6971 46.4956 21.9127 49.0908 22.6973C49.1089 22.7028 49.1283 22.7028 49.1463 22.6972C49.1644 22.6916 49.1804 22.6807 49.1922 22.6659C49.7506 21.919 50.2455 21.1267 50.6716 20.2971C50.6775 20.2858 50.6809 20.2733 50.6816 20.2605C50.6823 20.2478 50.6802 20.235 50.6755 20.2231C50.6708 20.2112 50.6636 20.2005 50.6544 20.1916C50.6452 20.1827 50.6342 20.1759 50.6221 20.1716C49.8426 19.8781 49.0873 19.5238 48.3632 19.1122C48.3502 19.1047 48.3392 19.0942 48.3313 19.0815C48.3233 19.0688 48.3187 19.0543 48.3177 19.0394C48.3168 19.0244 48.3195 19.0094 48.3258 18.9958C48.332 18.9822 48.3416 18.9704 48.3535 18.9613C48.5056 18.8491 48.6576 18.7321 48.8024 18.615C48.8155 18.6045 48.8312 18.5978 48.8478 18.5957C48.8644 18.5935 48.8813 18.5961 48.8965 18.6029C53.6352 20.7316 58.7673 20.7316 63.4505 18.6029C63.4658 18.5956 63.4828 18.5928 63.4997 18.5947C63.5165 18.5966 63.5325 18.6032 63.5458 18.6138C63.6906 18.7321 63.8414 18.8491 63.9947 18.9613C64.0068 18.9702 64.0164 18.9819 64.0229 18.9954C64.0293 19.0089 64.0323 19.0238 64.0316 19.0387C64.0309 19.0536 64.0265 19.0682 64.0188 19.081C64.0111 19.0938 64.0003 19.1045 63.9874 19.1122C63.2658 19.5273 62.5153 19.8784 61.7273 20.1704C61.7152 20.1748 61.7042 20.1818 61.695 20.1908C61.6858 20.1997 61.6786 20.2106 61.6739 20.2226C61.6692 20.2346 61.6671 20.2474 61.6678 20.2603C61.6685 20.2731 61.6719 20.2857 61.6778 20.2971C62.1122 21.1261 62.6094 21.9153 63.156 22.6647C63.1674 22.6801 63.1832 22.6915 63.2014 22.6976C63.2195 22.7036 63.2391 22.7039 63.2574 22.6985C65.857 21.9161 68.3057 20.6999 70.5 19.1013C70.5107 19.0938 70.5196 19.0841 70.5263 19.0729C70.533 19.0617 70.5371 19.0491 70.5386 19.0361C71.1419 12.8893 69.5274 7.54844 66.256 2.81579C66.248 2.80041 66.2347 2.78842 66.2186 2.782ZM51.3799 15.7974C49.9536 15.7974 48.7771 14.5074 48.7771 12.9255C48.7771 11.3423 49.9307 10.0535 51.3799 10.0535C52.84 10.0535 54.0057 11.3531 53.9828 12.9255C53.9828 14.5086 52.8292 15.7974 51.3799 15.7974ZM61.0033 15.7974C59.5758 15.7974 58.4005 14.5074 58.4005 12.9255C58.4005 11.3423 59.5528 10.0535 61.0033 10.0535C62.4634 10.0535 63.6291 11.3531 63.6061 12.9255C63.6061 14.5086 62.4646 15.7974 61.0033 15.7974Z" fill="#4F4F4F"/>
<path d="M26.7185 3.27957C25.736 3.71495 24.6805 4.00913 23.5708 4.1421C24.7158 3.45701 25.5724 2.37875 25.9807 1.10853C24.905 1.74747 23.7277 2.19722 22.5 2.43822C21.6744 1.5567 20.5809 0.97241 19.3892 0.776073C18.1975 0.579735 16.9743 0.78233 15.9095 1.3524C14.8447 1.92248 13.998 2.82814 13.5007 3.92877C13.0034 5.0294 12.8833 6.26343 13.1592 7.43926C10.9796 7.32983 8.8473 6.7633 6.90077 5.77645C4.95424 4.7896 3.23696 3.40449 1.86039 1.71101C1.3897 2.52294 1.11906 3.46431 1.11906 4.46688C1.11853 5.36941 1.34079 6.25813 1.76611 7.05416C2.19143 7.8502 2.80666 8.52895 3.55722 9.03019C2.68677 9.00249 1.83553 8.76729 1.07434 8.34416V8.41476C1.07426 9.68061 1.51212 10.9075 2.31364 11.8873C3.11516 12.867 4.23097 13.5393 5.47174 13.79C4.66425 14.0085 3.81767 14.0407 2.99592 13.8841C3.34599 14.9733 4.0279 15.9258 4.94618 16.6082C5.86445 17.2905 6.97313 17.6687 8.117 17.6896C6.17522 19.214 3.77713 20.0408 1.30851 20.0372C0.871219 20.0373 0.434298 20.0118 0 19.9607C2.50579 21.5718 5.42271 22.4269 8.40176 22.4236C18.4862 22.4236 23.9991 14.0712 23.9991 6.82737C23.9991 6.59203 23.9933 6.35433 23.9827 6.11899C25.055 5.3435 25.9806 4.38321 26.7162 3.2831L26.7185 3.27957Z" fill="#4F4F4F"/>
</svg>
