<svg width="25" height="28" viewBox="0 0 25 28" fill="none" xmlns="http://www.w3.org/2000/svg">
<path fill-rule="evenodd" clip-rule="evenodd" d="M12.8805 10.0132C12.8649 21.0405 12.9064 19.9788 12.4551 20.8922C11.8132 22.1915 10.5614 23.0266 9.10506 23.127C7.28887 23.2523 5.56829 22.079 4.99306 20.3231C4.79736 19.7255 4.76445 18.7859 4.91772 18.1714C5.3935 16.2636 7.10983 14.978 9.03578 15.0867C9.32156 15.1028 9.6776 15.1491 9.82699 15.1894L10.0986 15.2629V12.997V10.731L9.85286 10.6897C9.42561 10.6178 7.99185 10.6503 7.43639 10.7445C3.16222 11.4684 0.107952 15.1733 0.28357 19.4209C0.362323 21.3252 0.986868 22.953 2.22654 24.4852C3.37323 25.9025 5.21804 27.0136 7.04138 27.3852C9.37071 27.8599 11.77 27.3902 13.6723 26.0873C15.7436 24.6687 17.028 22.5508 17.34 20.0398C17.3749 19.7591 17.3945 17.7257 17.3945 14.3872V9.173L17.6266 9.35017C17.7543 9.44761 18.065 9.65499 18.3172 9.81095C19.9236 10.8047 21.7789 11.3903 23.6147 11.4832L24.2764 11.5167V9.28379V7.05085L24.0047 7.05054C23.2874 7.04976 22.2906 6.8165 21.4803 6.45994C19.1331 5.42693 17.4991 3.0667 17.3848 0.5441L17.3701 0.220703H15.1323H12.8943L12.8805 10.0132Z" fill="#E84F92"/>
</svg>
