<svg width="34" height="25" viewBox="0 0 34 25" fill="none" xmlns="http://www.w3.org/2000/svg">
<path fill-rule="evenodd" clip-rule="evenodd" d="M9.7245 1.20241C7.49356 1.86673 6.03985 2.51728 5.4747 3.1043C4.71985 3.88855 3.94436 5.31716 2.84171 7.95555C1.40851 11.3849 1.11251 12.5142 0.822308 15.6597C0.51295 19.0148 0.710464 20.602 1.54046 21.4284C2.45126 22.335 6.28108 24.3664 7.87793 24.7898C8.46413 24.945 8.57395 24.9359 9.00703 24.6955C9.29426 24.536 9.67634 24.1203 9.95912 23.6597C10.5803 22.6477 10.5093 22.3311 9.55356 21.8496C8.32962 21.233 8.10553 21.0246 8.10553 20.5033C8.10553 19.8561 8.40814 19.7823 9.02578 20.2786C10.5673 21.5174 12.9666 22.0629 16.875 22.0629C20.7833 22.0629 23.1826 21.5174 24.7241 20.2786C25.3418 19.7823 25.6444 19.8561 25.6444 20.5033C25.6444 21.0246 25.4203 21.233 24.1964 21.8496C23.2406 22.3311 23.1697 22.6477 23.7908 23.6597C24.0736 24.1203 24.4557 24.536 24.7429 24.6955C25.176 24.9359 25.2858 24.945 25.872 24.7898C27.4706 24.3659 31.2989 22.3347 32.2115 21.4262C32.9462 20.6948 33.1195 19.8191 33.0186 17.3461C32.868 13.6572 32.4982 11.8423 31.2894 8.85907C29.5401 4.54168 28.6386 3.08824 27.3017 2.42972C26.2448 1.90909 23.7089 1.04699 22.9141 0.937976C22.0474 0.819117 21.4204 1.14858 21.0477 1.91826C20.7904 2.44983 20.7148 2.51175 20.4009 2.4478C17.9937 1.95766 15.7563 1.95766 13.349 2.4478C13.0352 2.51175 12.9595 2.44983 12.7022 1.91826C12.3861 1.26514 11.7933 0.881177 11.1207 0.893859C10.9093 0.897772 10.281 1.0366 9.7245 1.20241ZM12.5291 11.3276C14.353 12.2708 14.7568 14.9944 13.2881 16.448C12.688 17.0419 12.1575 17.2644 11.3293 17.2695C9.12548 17.2831 7.74018 14.6827 8.85754 12.6297C9.62331 11.2226 11.2265 10.6541 12.5291 11.3276ZM23.8762 11.5128C25.7701 12.6925 25.7405 15.6771 23.8229 16.8716C21.9035 18.0675 19.5792 16.5909 19.5792 14.1756C19.5792 11.7199 21.8998 10.2819 23.8762 11.5128Z" fill="#E84F92"/>
</svg>
