<svg width="31" height="25" viewBox="0 0 31 25" fill="none" xmlns="http://www.w3.org/2000/svg">
<path fill-rule="evenodd" clip-rule="evenodd" d="M19.1262 1.12613C17.4885 1.73135 16.3374 2.79831 15.5519 4.43872C15.1001 5.38243 15.0782 5.49297 15.0739 6.86743L15.0692 8.30756L14.275 8.22045C10.2714 7.78136 6.9335 6.20806 3.93795 3.34807C3.1842 2.62847 2.50776 2.07646 2.43482 2.1216C2.1649 2.28839 1.76539 3.94204 1.76539 4.89224C1.76539 6.71295 2.40649 8.25593 3.64606 9.41833L4.26916 10.0026L3.84463 9.99827C3.47437 9.99456 2.63431 9.7457 1.85276 9.4084C1.62653 9.31084 1.61594 9.35863 1.70264 10.0833C1.96462 12.2717 3.57511 14.3454 5.57042 15.0635C6.56642 15.4219 6.40757 15.5395 4.90933 15.5532C4.18113 15.5598 3.88381 15.6105 3.88461 15.7279C3.88725 16.0702 4.73579 17.3571 5.35955 17.9647C6.14997 18.7346 7.67587 19.5108 8.61588 19.6214C8.99805 19.6663 9.31085 19.7481 9.31085 19.8031C9.31085 19.8582 9.02783 20.0831 8.68206 20.3029C6.62745 21.6086 4.81535 22.1736 2.2949 22.2942L0.507812 22.3798L1.91577 23.0776C4.84341 24.5283 6.44199 24.8917 9.90655 24.8935C12.6176 24.8951 13.6115 24.7539 15.6242 24.0813C20.5663 22.4296 24.5969 18.2882 26.2979 13.1135C26.8386 11.4691 27.0449 10.4077 27.1868 8.54252L27.3179 6.82123L28.3177 5.87143C29.3422 4.89833 30.1686 3.9439 30.0712 3.84633C30.041 3.81628 29.5723 3.93066 29.0293 4.10063C28.4864 4.27047 27.8039 4.45222 27.5126 4.50438L26.9831 4.59929L27.8583 3.69264C28.6632 2.85854 29.5937 1.39816 29.3202 1.39816C29.2563 1.39816 28.8234 1.57025 28.3582 1.7806C27.2309 2.29051 25.7361 2.74298 25.547 2.63178C25.4632 2.5824 25.1522 2.34585 24.8558 2.10611C24.5596 1.86625 23.9639 1.50631 23.5321 1.30616C22.8522 0.990972 22.5521 0.936962 21.2909 0.903206C20.0997 0.871303 19.706 0.911811 19.1262 1.12613Z" fill="#E84F92"/>
</svg>
